<?xml version="1.0" standalone="no"?>
<!DOCTYPE svg PUBLIC "-//W3C//DTD SVG 20010904//EN"
 "http://www.w3.org/TR/2001/REC-SVG-20010904/DTD/svg10.dtd">
<svg version="1.0" xmlns="http://www.w3.org/2000/svg"
 width="150.000000pt" height="150.000000pt" viewBox="0 0 150.000000 150.000000"
 preserveAspectRatio="xMidYMid meet">
<metadata>
Created by potrace 1.11, written by Peter Selinger 2001-2013
</metadata>
<g transform="translate(0.000000,150.000000) scale(0.100000,-0.100000)"
fill="#000000" stroke="none">
<path d="M620 1334 c-154 -105 -140 -75 -140 -306 l0 -198 28 -17 c39 -24 72
-55 72 -67 0 -6 -23 -24 -50 -39 l-50 -28 2 -207 3 -207 80 -57 c44 -32 97
-70 118 -84 l37 -27 98 66 c156 106 142 76 142 303 l0 195 -40 39 c-22 22 -40
44 -40 49 0 6 18 25 40 42 l40 32 0 203 c0 199 0 203 -22 219 -13 9 -65 47
-117 85 -52 39 -97 70 -100 69 -3 0 -49 -29 -101 -65z m205 -45 c44 -33 86
-67 93 -76 8 -12 12 -67 12 -191 l0 -174 -39 -39 c-21 -22 -47 -39 -58 -39
-11 0 -38 17 -61 38 l-42 39 0 186 c0 118 -4 187 -10 187 -6 0 -10 -71 -10
-194 l0 -194 53 -40 c28 -22 78 -64 110 -94 l57 -54 0 -176 c0 -209 13 -186
-175 -307 -31 -20 -59 -9 -157 64 l-88 66 0 184 0 185 38 23 c59 37 71 39 106
17 51 -31 56 -54 56 -235 0 -103 4 -165 10 -165 6 0 10 68 10 184 l0 185 -104
86 c-58 48 -107 93 -110 102 -3 8 -6 90 -6 182 l0 167 28 26 c48 45 164 118
186 118 12 0 58 -27 101 -61z"/>
</g>
</svg>
